<?xml version="1.0" encoding="utf-8"?>
<!-- Generator: Adobe Illustrator 15.1.0, SVG Export Plug-In . SVG Version: 6.00 Build 0)  -->
<!DOCTYPE svg PUBLIC "-//W3C//DTD SVG 1.1//EN" "http://www.w3.org/Graphics/SVG/1.1/DTD/svg11.dtd">
<svg version="1.1" id="Layer_1" xmlns="http://www.w3.org/2000/svg" xmlns:xlink="http://www.w3.org/1999/xlink" x="0px" y="0px"
	 width="847.045px" height="66px" viewBox="0 0 847.045 66" enable-background="new 0 0 847.045 66" xml:space="preserve">
<g>
	<g>
		<path fill="#010101" d="M23.256,19.124c-0.072-0.863-0.216-3.022-3.745-3.022c-2.52,0-3.384,1.584-3.384,2.665
			c0,2.159,2.953,3.384,6.121,4.318c6.769,1.873,13.969,3.89,13.969,12.529c0,8.426-7.417,13.609-16.273,13.609
			c-6.048,0-15.193-2.736-16.273-13.248h11.881c0.504,3.672,4.032,3.672,4.536,3.672c2.016,0,4.176-1.152,4.176-3.098
			c0-3.096-2.952-3.457-10.585-6.408C8.496,28.485,4.175,25.101,4.175,19.7c0-7.921,7.2-13.177,15.481-13.177
			c5.257,0,14.33,2.088,15.337,12.601H23.256L23.256,19.124z"/>
		<path fill="#010101" d="M79.128,7.893L59.11,61.177H46.438l6.336-15.336L37.94,7.894h12.745l7.993,23.186h0.144l7.633-23.186
			L79.128,7.893L79.128,7.893z"/>
		<path fill="#010101" d="M83.517,7.893h11.161v4.249h0.144c1.224-1.943,3.744-5.617,10.873-5.617c3.816,0,8.064,1.584,10.225,3.456
			c2.16,1.873,4.608,5.041,4.608,12.89v24.986h-11.953V26.038c0-2.809,0-8.281-6.265-8.281c-6.84,0-6.84,5.904-6.84,8.354v21.747
			H83.517V7.893z"/>
		<path fill="#010101" d="M171,47.854h-11.953v-4.318h-0.145c-2.016,3.887-6.984,5.688-11.665,5.688
			c-12.673,0-20.09-9.938-20.09-21.386c0-13.104,9.433-21.313,20.09-21.313c6.553,0,10.226,3.168,11.665,5.617h0.145V7.894H171
			V47.854z M149.039,38.063c7.488,0,10.009-6.336,10.009-10.227c0-4.823-3.312-10.151-10.081-10.151
			c-6.841,0-9.865,5.76-9.865,10.297C139.101,31.727,141.837,38.063,149.039,38.063z"/>
		<path fill="#010101" d="M181.146,7.893h11.233v4.392h0.071h0.145c2.376-3.023,6.336-5.76,12.457-5.76
			c14.185,0,19.514,12.457,19.514,21.746c0,11.521-8.064,20.955-19.441,20.955c-7.201,0-10.585-3.457-12.025-4.969v16.92h-11.953
			L181.146,7.893L181.146,7.893z M212.613,27.909c0-4.752-3.457-10.225-10.009-10.225c-6.553,0-10.009,5.473-10.009,10.225
			c0,5.041,3.744,10.154,10.009,10.154C208.871,38.063,212.613,32.95,212.613,27.909z"/>
		<path fill="#010101" d="M248.323,19.124c-0.071-0.863-0.216-3.022-3.744-3.022c-2.521,0-3.385,1.584-3.385,2.665
			c0,2.159,2.953,3.384,6.121,4.318c6.77,1.873,13.969,3.89,13.969,12.529c0,8.426-7.417,13.609-16.272,13.609
			c-6.048,0-15.193-2.736-16.273-13.248h11.881c0.505,3.672,4.032,3.672,4.536,3.672c2.017,0,4.177-1.152,4.177-3.098
			c0-3.096-2.952-3.457-10.585-6.408c-5.185-1.656-9.505-5.041-9.505-10.441c0-7.921,7.2-13.177,15.481-13.177
			c5.257,0,14.33,2.088,15.337,12.601H248.323L248.323,19.124z"/>
		<path fill="#010101" d="M305.782,35.327c-1.943,4.465-4.752,7.92-8.137,10.225c-3.312,2.375-7.271,3.6-11.377,3.6
			c-11.449,0-21.17-9.289-21.17-21.168c0-11.16,8.785-21.458,20.954-21.458s21.099,9.647,21.099,21.817
			c0,1.584-0.145,2.232-0.287,3.168h-29.956c0.721,4.752,4.681,7.561,9.361,7.561c3.672,0,5.615-1.656,7.271-3.744H305.782
			L305.782,35.327z M295.196,23.444c-0.504-2.376-2.88-6.84-9.072-6.84c-6.193,0-8.569,4.464-9.073,6.84H295.196z"/>
	</g>
	<g>
		<path fill="#969696" d="M341.78,15.925h9.3v3.539h0.12c0.779-1.379,2.938-4.68,9.18-4.68c2.938,0,6.96,1.021,9.601,5.939
			c2.04-3.24,5.46-5.939,10.561-5.939c2.34,0,6.06,0.541,8.76,3.36c3.12,3.3,3.602,5.521,3.602,12.897v18.181h-9.961v-17.7
			c0-2.699,0-7.38-5.101-7.38c-5.52,0-5.52,5.04-5.52,6.899v18.18h-9.96V31.104c0-1.8,0-6.96-4.979-6.96
			c-5.64,0-5.64,5.399-5.64,7.38v17.699h-9.96L341.78,15.925L341.78,15.925z"/>
		<path fill="#969696" d="M416.298,14.844c12.119,0,17.939,9.54,17.939,17.698c0,8.16-5.82,17.701-17.939,17.701
			c-12.12,0-17.938-9.539-17.938-17.701C398.361,24.384,404.178,14.844,416.298,14.844z M416.298,40.942
			c4.319,0,7.98-3.539,7.98-8.398s-3.661-8.399-7.98-8.399s-7.979,3.54-7.979,8.399S411.978,40.942,416.298,40.942z"/>
		<path fill="#969696" d="M439.878,4.825h9.961v13.74c3.539-3.78,8.279-3.78,9.66-3.78c6.959,0,16.379,4.979,16.379,17.579
			c0,11.999-8.34,17.999-16.799,17.999c-4.682,0-8.281-2.279-9.541-4.68h-0.119v3.541h-9.541V4.825L439.878,4.825z M457.577,41.063
			c5.1,0,8.34-4.141,8.34-8.52c0-4.319-3.24-8.461-8.16-8.461c-5.279,0-8.279,4.261-8.279,8.4
			C449.478,37.104,452.599,41.063,457.577,41.063z"/>
		<path fill="#969696" d="M491.417,12.384h-9.959v-7.56h9.959V12.384L491.417,12.384z M491.417,49.224h-9.959V15.925h9.959V49.224
			L491.417,49.224z"/>
		<path fill="#969696" d="M498.616,4.825h9.961v44.399h-9.961V4.825z"/>
		<path fill="#969696" d="M547.876,38.784c-1.621,3.719-3.961,6.6-6.779,8.52c-2.76,1.979-6.061,3-9.479,3
			c-9.541,0-17.641-7.738-17.641-17.641c0-9.299,7.318-17.879,17.459-17.879s17.58,8.041,17.58,18.18c0,1.32-0.119,1.859-0.24,2.639
			h-24.959c0.6,3.961,3.898,6.301,7.801,6.301c3.059,0,4.68-1.381,6.059-3.119H547.876L547.876,38.784z M539.058,28.884
			c-0.422-1.979-2.398-5.699-7.561-5.699c-5.16,0-7.141,3.72-7.561,5.699H539.058z"/>
		<path fill="#969696" d="M573.075,15.925h9.301v3.539h0.119c1.021-1.619,3.121-4.68,9.061-4.68c3.182,0,6.723,1.32,8.521,2.881
			c1.801,1.561,3.84,4.199,3.84,10.738v20.82h-9.959v-18.18c0-2.34,0-6.899-5.221-6.899c-5.699,0-5.699,4.92-5.699,6.96v18.12
			h-9.959v-33.3H573.075z"/>
		<path fill="#969696" d="M643.095,38.784c-1.619,3.719-3.961,6.6-6.779,8.52c-2.76,1.979-6.061,3-9.479,3
			c-9.541,0-17.641-7.738-17.641-17.641c0-9.299,7.32-17.879,17.459-17.879c10.141,0,17.58,8.041,17.58,18.18
			c0,1.32-0.119,1.859-0.24,2.639h-24.959c0.6,3.961,3.9,6.301,7.801,6.301c3.061,0,4.68-1.381,6.061-3.119H643.095L643.095,38.784z
			 M634.274,28.884c-0.42-1.979-2.4-5.699-7.561-5.699c-5.158,0-7.139,3.72-7.559,5.699H634.274z"/>
		<path fill="#969696" d="M661.694,15.925h4.801v7.561h-4.801v25.739h-9.959v-25.74h-4.92v-7.562h4.92V4.824h9.959V15.925z"/>
		<path fill="#969696" d="M677.954,15.925l4.98,20.699h0.119l5.461-20.699h8.398l5.52,20.699h0.119l4.98-20.699h10.26
			l-10.199,33.299h-9.238l-5.58-21.539h-0.121l-5.578,21.539h-9.24l-10.199-33.299H677.954z"/>
		<path fill="#969696" d="M736.394,14.844c12.119,0,17.939,9.54,17.939,17.698c0,8.16-5.82,17.701-17.939,17.701
			s-17.938-9.539-17.938-17.701C718.454,24.384,724.274,14.844,736.394,14.844z M736.394,40.942c4.318,0,7.98-3.539,7.98-8.398
			s-3.66-8.399-7.98-8.399c-4.318,0-7.979,3.54-7.979,8.399C728.413,37.403,732.073,40.942,736.394,40.942z"/>
		<path fill="#969696" d="M759.913,15.925h9.359v3.539h0.121c0.84-1.619,2.58-4.68,8.34-4.68v10.021
			c-4.621,0.119-7.861,1.079-7.861,6.119v18.299h-9.959V15.925L759.913,15.925z"/>
		<path fill="#969696" d="M783.313,4.825h9.959v23.159h0.119l9.24-12.061h11.818l-12.539,14.641l12.18,18.66h-11.279l-9.42-16.021
			h-0.119v16.021h-9.959V4.825L783.313,4.825z"/>
		<path fill="#969696" d="M832.571,25.284c-0.061-0.72-0.18-2.52-3.119-2.52c-2.102,0-2.82,1.318-2.82,2.22
			c0,1.8,2.459,2.82,5.1,3.601c5.643,1.561,11.643,3.24,11.643,10.439c0,7.02-6.182,11.34-13.562,11.34
			c-5.039,0-12.656-2.279-13.561-11.039h9.9c0.42,3.06,3.359,3.06,3.779,3.06c1.68,0,3.48-0.959,3.48-2.578
			c0-2.58-2.461-2.881-8.82-5.341c-4.318-1.381-7.92-4.199-7.92-8.699c0-6.602,6-10.979,12.9-10.979
			c4.379,0,11.938,1.739,12.777,10.5h-9.777V25.284L832.571,25.284z"/>
	</g>
</g>
</svg>
